<?xml version="1.0" standalone="no"?>
<!DOCTYPE svg PUBLIC "-//W3C//DTD SVG 20010904//EN"
 "http://www.w3.org/TR/2001/REC-SVG-20010904/DTD/svg10.dtd">
<svg version="1.0" xmlns="http://www.w3.org/2000/svg"
 width="1392.000000pt" height="1392.000000pt" viewBox="0 0 1392.000000 1392.000000"
 preserveAspectRatio="xMidYMid meet">
<metadata>
Created by potrace 1.11, written by Peter Selinger 2001-2013
</metadata>
<g transform="translate(0.000000,1392.000000) scale(0.100000,-0.100000)"
fill="#000000" stroke="none">
<path d="M5157 11513 c-2 -5 -3 -17 -1 -28 2 -11 6 -45 10 -75 6 -61 8 -81 18
-155 6 -44 17 -193 17 -220 -1 -74 -12 -170 -23 -192 -28 -59 -40 -43 -107
141 -35 97 -70 181 -78 188 -19 15 -48 -19 -98 -117 -20 -38 -40 -74 -44 -80
-12 -16 -56 -129 -53 -137 1 -5 -2 -8 -7 -8 -5 0 -11 -10 -14 -22 -3 -13 -17
-57 -32 -98 -57 -160 -80 -189 -104 -132 -19 45 -31 153 -33 294 -2 107 -12
130 -44 100 -10 -10 -30 -25 -42 -34 -36 -24 -150 -137 -207 -202 -27 -32 -56
-64 -62 -71 -7 -8 -13 -16 -13 -20 0 -3 -9 -16 -21 -28 -55 -58 -197 -317
-215 -390 -5 -21 -18 -34 -48 -47 -42 -19 -76 -51 -76 -73 0 -7 -4 -17 -9 -22
-11 -12 -48 -137 -56 -190 -4 -22 -8 -51 -10 -65 -5 -28 -14 -106 -19 -163 -2
-21 -6 -40 -8 -43 -3 -2 -20 17 -38 44 -56 78 -202 215 -284 267 -72 44 -168
89 -219 102 -104 25 -252 34 -331 19 -12 -2 -39 -7 -61 -11 -22 -4 -76 -24
-121 -46 -61 -29 -95 -53 -135 -97 -174 -187 -217 -461 -119 -754 64 -191 194
-388 332 -503 35 -30 44 -43 36 -52 -6 -7 -16 -13 -23 -13 -8 0 -15 -3 -17 -7
-1 -5 -28 -27 -58 -49 -159 -120 -317 -290 -429 -464 -33 -52 -66 -101 -71
-107 -6 -7 -8 -13 -4 -13 4 0 0 -8 -9 -17 -8 -10 -19 -30 -22 -45 -4 -16 -11
-28 -16 -28 -5 0 -9 -4 -9 -9 0 -5 -12 -35 -27 -67 -15 -33 -28 -63 -29 -69
-1 -5 -14 -38 -27 -72 -14 -35 -23 -63 -20 -63 3 0 1 -6 -5 -13 -10 -11 -25
-64 -38 -136 -3 -13 -9 -32 -15 -43 -5 -10 -8 -18 -5 -18 3 0 0 -15 -5 -32 -5
-18 -12 -53 -15 -78 -3 -25 -8 -54 -10 -65 -29 -145 -25 -599 6 -706 5 -15 6
-29 4 -32 -3 -2 5 -44 16 -92 11 -49 22 -98 25 -109 2 -12 4 -21 6 -21 1 0 3
-9 5 -20 7 -52 84 -264 130 -361 19 -40 34 -75 34 -78 0 -4 11 -23 23 -44 13
-20 23 -45 21 -54 -1 -9 -5 -54 -8 -100 -4 -46 -9 -101 -11 -123 -3 -22 -7
-71 -10 -110 -7 -91 -14 -185 -20 -260 -6 -69 -13 -185 -20 -330 -3 -55 -7
-143 -10 -195 -14 -264 -23 -573 -30 -957 -2 -122 -6 -227 -10 -233 -16 -25
-25 -969 -12 -1200 4 -63 9 -171 12 -240 3 -69 7 -177 10 -240 16 -381 23
-658 30 -1261 3 -263 7 -352 17 -368 7 -11 30 -27 51 -36 33 -13 557 -15 4706
-15 l4669 0 1 107 c1 58 4 109 6 112 2 4 6 71 10 151 4 80 9 172 12 205 11
120 10 2459 -1 2473 -5 8 -11 48 -12 90 -6 213 -15 485 -19 547 -2 39 -7 131
-10 205 -3 74 -8 162 -10 195 -7 115 -17 290 -20 359 -2 38 -6 101 -9 140 -3
39 -8 107 -11 151 -11 152 -26 362 -30 405 -2 19 -7 69 -10 110 -4 41 -8 85
-10 97 -2 15 15 50 49 100 62 91 142 227 175 298 13 28 35 71 48 98 13 26 21
47 17 47 -3 0 -2 6 4 13 14 16 103 279 97 285 -3 3 0 11 6 19 6 7 9 13 6 13
-3 0 -1 15 4 33 11 35 13 44 34 162 24 132 26 152 29 360 4 202 -5 338 -29
451 -3 12 -7 39 -11 60 -28 183 -142 480 -261 683 -123 208 -321 423 -530 575
l-53 37 38 52 c141 193 252 430 282 602 12 72 16 188 7 230 -4 17 -9 45 -12
64 -3 19 -21 68 -40 109 -80 173 -220 287 -401 328 -131 29 -382 5 -476 -46
-13 -8 -22 1 -47 45 -17 30 -31 59 -31 65 0 5 -3 10 -7 10 -5 0 -21 21 -37 48
-54 86 -118 166 -187 234 -70 68 -149 128 -168 128 -6 0 -11 5 -11 10 0 6 -6
10 -14 10 -8 0 -16 3 -18 8 -1 4 -41 26 -88 49 -135 66 -240 118 -305 151
-124 64 -253 119 -264 113 -2 -2 -7 1 -10 6 -6 9 -197 79 -331 122 -176 56
-229 73 -241 75 -18 3 -126 35 -159 46 -23 8 -248 69 -274 75 -6 1 -18 4 -26
8 -8 3 -37 10 -65 17 -27 7 -57 14 -65 17 -8 4 -19 7 -25 8 -25 6 -303 86
-330 94 -16 6 -51 13 -76 16 -74 10 -77 2 -63 -202 6 -77 5 -83 -13 -83 -11 0
-30 12 -44 26 -37 39 -161 113 -245 146 -65 25 -195 61 -294 82 -101 21 -253
70 -277 88 -22 17 -73 27 -74 15 -4 -34 12 -165 30 -240 12 -52 2 -54 -105
-22 -48 15 -92 28 -98 30 -6 1 -18 5 -26 8 -8 3 -33 11 -55 17 -22 6 -47 14
-55 17 -8 4 -17 7 -20 8 -11 4 -51 19 -190 72 -80 31 -171 68 -202 83 -31 15
-59 25 -62 22 -4 -3 -6 1 -6 8 0 7 -3 10 -6 7 -4 -4 -20 3 -35 14 -16 11 -29
18 -29 14 0 -3 -10 1 -21 9 -21 14 -49 12 -49 -4 0 -5 20 -51 44 -102 89 -189
95 -270 15 -210 -13 9 -44 28 -68 41 -51 28 -312 202 -331 221 -3 3 -32 25
-65 50 -33 24 -65 49 -71 55 -6 5 -27 21 -47 35 -20 14 -37 28 -37 33 0 4 -11
7 -24 7 -14 0 -27 -3 -29 -7z"/>
</g>
</svg>
